# xmcd CD database file
#
# Track frame offsets:
#	150
#	26939
#	48256
#	92435
#	133372
#	160652
#	191183
#	220062
#	258123
#	289752
#	328179
#
# Disc length: 4667 seconds
#
# Revision: 1
# Processed by: cddbd v1.5.2PL0 Copyright (c) Steve Scherf et al.
# Submitted via: CDex 1.79
#
DISCID=a112390b
DTITLE=Miles Davis - The Genius Of Jazz [CD2)
DYEAR=2012
DGENRE=Jazz
TTITLE0='Round Midnight
TTITLE1=Stella By Starlight
TTITLE2=On Green Dolphin Street
TTITLE3=Some Day My Prince Will Come
TTITLE4=Summer Night
TTITLE5=I Fall In Love Too Easily
TTITLE6=Seven Steps To Heaven
TTITLE7=Baby Won't You Please Come Home
TTITLE8=Joshua
TTITLE9=Iris
TTITLE10=Drag Dog
EXTD=YEAR: 2012
EXTT0=
EXTT1=
EXTT2=
EXTT3=
EXTT4=
EXTT5=
EXTT6=
EXTT7=
EXTT8=
EXTT9=
EXTT10=
PLAYORDER=
